<?xml version="1.0" encoding="UTF-8"?>
<svg xmlns="http://www.w3.org/2000/svg" xmlns:xlink="http://www.w3.org/1999/xlink" width="100px" height="100px" viewBox="0 0 100 100" version="1.1">
<defs>
<linearGradient id="linear0" gradientUnits="userSpaceOnUse" x1="120" y1="240" x2="120" y2="0" gradientTransform="matrix(0.416667,0,0,0.416667,0,0)">
<stop offset="0" style="stop-color:rgb(11.372549%,57.647059%,82.352941%);stop-opacity:1;"/>
<stop offset="1" style="stop-color:rgb(21.960784%,69.019608%,89.019608%);stop-opacity:1;"/>
</linearGradient>
</defs>
<g id="surface1">
<path style=" stroke:none;fill-rule:nonzero;fill:url(#linear0);" d="M 100 50 C 100 22.386719 77.613281 0 50 0 C 22.386719 0 0 22.386719 0 50 C 0 77.613281 22.386719 100 50 100 C 77.613281 100 100 77.613281 100 50 Z M 100 50 "/>
<path style=" stroke:none;fill-rule:nonzero;fill:rgb(78.431374%,85.490197%,91.764706%);fill-opacity:1;" d="M 33.84375 53.65625 L 39.777344 70.074219 C 39.777344 70.074219 40.519531 71.609375 41.3125 71.609375 C 42.109375 71.609375 53.917969 59.320312 53.917969 59.320312 L 67.054688 33.953125 L 34.058594 49.417969 Z M 33.84375 53.65625 "/>
<path style=" stroke:none;fill-rule:nonzero;fill:rgb(66.274512%,77.64706%,84.705883%);fill-opacity:1;" d="M 41.710938 57.867188 L 40.570312 69.96875 C 40.570312 69.96875 40.09375 73.675781 43.804688 69.96875 C 47.511719 66.261719 51.058594 63.402344 51.058594 63.402344 "/>
<path style=" stroke:none;fill-rule:nonzero;fill:rgb(100%,100%,100%);fill-opacity:1;" d="M 33.953125 54.242188 L 21.75 50.265625 C 21.75 50.265625 20.292969 49.671875 20.761719 48.332031 C 20.859375 48.054688 21.054688 47.820312 21.636719 47.414062 C 24.339844 45.53125 71.679688 28.515625 71.679688 28.515625 C 71.679688 28.515625 73.015625 28.066406 73.804688 28.363281 C 74.203125 28.488281 74.503906 28.8125 74.589844 29.21875 C 74.675781 29.574219 74.710938 29.933594 74.695312 30.296875 C 74.691406 30.609375 74.65625 30.902344 74.625 31.355469 C 74.339844 36.007812 65.710938 70.730469 65.710938 70.730469 C 65.710938 70.730469 65.191406 72.761719 63.34375 72.828125 C 62.425781 72.859375 61.535156 72.515625 60.875 71.875 C 57.246094 68.753906 44.699219 60.320312 41.929688 58.46875 C 41.800781 58.382812 41.71875 58.246094 41.699219 58.09375 C 41.660156 57.898438 41.875 57.65625 41.875 57.65625 C 41.875 57.65625 63.71875 38.238281 64.300781 36.199219 C 64.34375 36.042969 64.175781 35.964844 63.945312 36.035156 C 62.496094 36.566406 37.34375 52.449219 34.570312 54.203125 C 34.371094 54.265625 34.15625 54.277344 33.953125 54.242188 Z M 33.953125 54.242188 "/>
</g>
</svg>
